<svg xmlns="http://www.w3.org/2000/svg" viewBox="0 0 1200 1200" role="img" aria-labelledby="title desc">
  <title id="title">NeuroRadio cover artwork</title>
  <desc id="desc">Dark square artwork with abstract neural arcs and the NeuroRadio title.</desc>
  <rect width="1200" height="1200" fill="#070707"/>
  <g fill="none" stroke="#f6f4ec" stroke-linecap="round">
    <path d="M134 636c141-312 301-428 479-347 181 82 323 28 453-164" stroke-width="10" opacity=".22"/>
    <path d="M150 806c178-222 355-269 530-139 154 114 278 103 373-31" stroke-width="8" opacity=".28"/>
    <path d="M216 402c128 83 236 91 324 24 105-80 207-72 305 24" stroke-width="6" opacity=".18"/>
  </g>
  <g fill="#f6f4ec">
    <circle cx="206" cy="402" r="10"/>
    <circle cx="344" cy="504" r="5"/>
    <circle cx="474" cy="448" r="7"/>
    <circle cx="626" cy="340" r="8"/>
    <circle cx="832" cy="458" r="6"/>
    <circle cx="997" cy="198" r="9"/>
    <circle cx="246" cy="772" r="7"/>
    <circle cx="526" cy="654" r="10"/>
    <circle cx="820" cy="730" r="6"/>
    <circle cx="1004" cy="632" r="8"/>
  </g>
  <text x="92" y="982" fill="#f6f4ec" font-family="Georgia, 'Times New Roman', serif" font-size="108">Neuro</text>
  <text x="92" y="1092" fill="#f6f4ec" font-family="Georgia, 'Times New Roman', serif" font-size="108">Radio</text>
</svg>
